<svg width="195" height="40" viewBox="0 0 195 40" fill="none" xmlns="http://www.w3.org/2000/svg">
<path d="M28.08 25.78L28.116 31.396C28.116 35.86 25.632 37.696 21.672 37.696C21.24 37.696 19.764 37.516 19.764 37.12V31H8.136C8.136 31.18 8.172 32.152 8.172 32.332C8.172 35.608 5.868 37.732 1.872 37.732C1.404 37.732 0.18 37.552 0.18 37.156V26.428C0.18 26.32 0.252 26.284 0.288 26.248C0.684 25.888 5.904 23.44 5.724 5.512V5.476C5.724 5.332 5.868 5.332 5.868 5.332C11.232 3.856 19.08 3.748 24.48 5.332C24.48 5.332 24.66 5.332 24.624 5.512L24.588 25.564H27.936C27.936 25.564 28.08 25.564 28.08 25.78ZM9.216 25.492C9.18 25.528 9.252 25.564 9.252 25.564H16.812V9.58H12.816C12.816 15.736 12.276 23.296 9.216 25.492ZM53.9688 30.82C54.0408 31 53.8608 31 53.8608 31H45.7248C45.7248 31 45.5448 31 45.5088 30.82L44.6088 27.004H38.2368C37.8048 29.272 37.4448 30.82 37.4448 30.82C37.3728 31 37.1928 31 37.1928 31H29.6688C29.6688 31 29.4888 31 29.5968 30.82C29.5968 30.82 35.7888 11.452 35.7888 11.416C37.2648 7.636 35.3208 7.564 35.6088 6.736C36.0768 5.332 38.6688 4.252 40.7568 4.252C43.3848 4.252 46.0488 5.98 47.4528 9.904C48.9648 14.152 53.9688 30.82 53.9688 30.82ZM39.2448 22.144H43.4568L41.3328 11.704C40.6848 14.332 39.9288 18.868 39.2448 22.144ZM62.8771 28.336C62.8771 32.296 59.7811 34.348 58.5571 34.78C56.9731 35.32 56.7211 35.032 56.7211 34.672C56.7211 34.384 56.9731 34.096 57.3331 33.772C58.7731 32.404 58.8811 31.72 58.1611 31.468C56.7931 30.928 55.8211 29.668 55.8211 28.12C55.8211 26.176 57.4051 24.592 59.3491 24.592C61.2571 24.592 62.8771 26.176 62.8771 28.336Z" fill="#F15A24"/>
<path d="M85.696 6.016C85.696 6.384 85.824 13.92 85.824 13.92C85.824 14 85.76 14 85.76 14H82.656C82.656 14 82.592 14 82.592 13.92C82.592 13.92 82.608 12.496 82.608 10.864L82.768 9.136L80.736 13.856C80.704 13.952 80.672 13.984 80.528 13.984H80.128C80.032 13.984 79.984 13.952 79.936 13.856L78.32 9.76C78.32 10.432 78.288 11.04 78.24 11.44C77.968 13.504 77.04 14.304 75.76 14.304C74.72 14.304 74.08 13.552 74.08 13.216C74.08 12.832 74.624 13.088 75.216 10.496C75.584 8.928 75.424 6.032 75.424 6.032C75.424 5.952 75.488 5.952 75.488 5.952C75.488 5.952 78.08 5.952 78.848 5.952C78.896 5.952 78.928 6.016 78.928 6.016L80.368 9.008H80.416L81.984 6C81.984 6 82 5.952 82.064 5.952C82.944 5.952 85.648 5.952 85.648 5.952C85.648 5.952 85.696 5.952 85.696 6.016ZM97.981 10.784C97.981 13.328 99.197 12.784 99.037 13.216C98.861 13.728 97.997 14.352 97.101 14.352C95.821 14.352 94.749 13.424 94.749 11.92C94.749 11.376 94.749 9.904 94.749 8.816C94.749 7.52 93.949 7.632 93.629 8.704C94.125 9.248 94.445 9.984 94.445 10.848C94.445 12.912 92.717 14.352 90.589 14.352C87.629 14.352 86.765 12.352 86.765 10.88C86.765 9.792 86.765 6.016 86.765 6.032C86.765 5.968 86.829 5.952 86.829 5.952H89.917C89.917 5.952 89.981 5.968 89.981 6.048C89.981 6.048 89.981 6.816 89.981 7.808C90.365 7.744 90.813 7.696 91.261 7.696C91.853 7.696 92.429 7.856 92.925 8.144C93.533 6.288 94.813 5.648 95.773 5.648C96.973 5.648 97.981 6.688 97.981 8.288C97.981 8.96 97.981 9.584 97.981 10.784ZM90.669 12.496C91.325 12.496 91.421 11.632 91.421 10.768C91.421 9.84 91.005 9.232 90.301 9.232C90.189 9.232 90.061 9.248 89.981 9.264C89.981 9.984 89.981 10.688 89.981 11.216C89.997 11.84 90.109 12.496 90.669 12.496ZM111.949 5.952C111.949 5.952 111.997 5.936 111.997 6.016C111.997 7.296 111.997 13.904 111.997 13.904C111.997 13.984 111.933 13.984 111.933 13.984H108.845C108.845 13.984 108.781 13.984 108.781 13.904C108.781 13.904 108.781 9.712 108.781 7.424C108.285 7.424 107.613 7.424 106.989 7.424C106.989 9.792 106.989 13.904 106.989 13.904C106.989 13.984 106.909 13.984 106.909 13.984H103.821C103.821 13.984 103.757 13.984 103.757 13.904C103.757 13.904 103.757 6.384 103.757 6.016C103.757 5.952 103.821 5.952 103.821 5.952C106.125 5.488 109.613 5.44 111.949 5.952ZM119.216 5.6C121.232 5.6 122.336 7.824 122.336 9.968C122.336 12.16 121.232 14.304 119.136 14.304C118.032 14.304 117.248 13.68 116.752 12.784C116.752 15.2 116.752 17.424 116.752 17.424C116.752 17.504 116.672 17.52 116.672 17.52H113.472C113.472 17.52 113.392 17.504 113.408 17.44C113.408 17.44 113.392 10.272 113.392 9.168C113.392 6.624 112.432 7.168 112.576 6.736C112.752 6.224 113.616 5.6 114.512 5.6C115.616 5.6 116.464 6.288 116.688 7.424C117.232 6.368 118.096 5.6 119.216 5.6ZM117.856 12.144C118.64 12.144 119.056 11.168 119.056 9.968C119.056 8.768 118.64 7.808 117.856 7.808C117.072 7.808 116.656 8.768 116.656 9.968C116.656 11.168 117.072 12.144 117.856 12.144ZM131.779 10.016C131.779 12.432 129.923 14.368 127.299 14.368C124.723 14.368 122.819 12.432 122.819 10.016C122.819 7.616 124.723 5.664 127.299 5.664C129.875 5.664 131.779 7.616 131.779 10.016ZM125.971 10.016C125.971 11.36 126.371 12.56 127.299 12.56C128.259 12.56 128.627 11.424 128.627 10.016C128.627 8.64 128.227 7.472 127.299 7.472C126.355 7.472 125.971 8.64 125.971 10.016ZM136.946 7.712C136.978 7.568 136.994 7.552 137.01 7.488C136.93 7.44 136.818 7.424 136.722 7.424C135.858 7.424 135.442 8.784 135.554 9.968C135.81 12.832 138.53 12.512 140.162 11.536C140.226 11.488 140.322 11.472 140.386 11.52C140.434 11.568 140.466 11.632 140.434 11.776C140.242 12.448 139.058 14.336 136.722 14.336C134.29 14.336 132.354 12.384 132.354 9.968C132.354 7.632 134.146 5.728 136.594 5.616C137.298 5.6 138.242 5.712 138.85 6.064C141.906 5.344 145.986 5.824 146.546 5.904C146.658 5.92 146.69 5.984 146.706 6.064C146.706 6.064 146.754 6.256 146.754 6.528C146.786 8.112 145.09 8.24 144.226 8.112H144.21V10.752C144.21 13.296 145.298 12.752 145.154 13.184C144.978 13.696 144.098 14.32 143.202 14.32C141.922 14.32 140.978 13.392 140.978 11.888V7.968C140.146 7.952 140.13 7.968 140.114 7.968C139.922 8.816 139.186 9.456 138.386 9.456C137.49 9.456 136.738 8.656 136.946 7.712ZM155.037 10.016C155.037 12.432 153.181 14.368 150.557 14.368C147.981 14.368 146.077 12.432 146.077 10.016C146.077 7.616 147.981 5.664 150.557 5.664C153.133 5.664 155.037 7.616 155.037 10.016ZM149.229 10.016C149.229 11.36 149.629 12.56 150.557 12.56C151.517 12.56 151.885 11.424 151.885 10.016C151.885 8.64 151.485 7.472 150.557 7.472C149.613 7.472 149.229 8.64 149.229 10.016ZM80.608 26.064C80.608 26.064 81.056 27.648 79.456 28.112C78.864 28.288 77.984 28.176 77.76 28.144V30.768C77.76 33.312 78.864 32.768 78.704 33.2C78.528 33.696 77.616 34.336 76.72 34.336C75.44 34.336 74.496 33.408 74.496 31.904L74.48 26.032C74.48 26 74.544 25.952 74.56 25.952C74.944 25.888 76.16 25.712 77.536 25.712C78.976 25.712 80.048 25.824 80.448 25.904C80.56 25.92 80.592 25.984 80.608 26.064ZM89.0456 30.016C89.0456 32.432 87.1896 34.368 84.5656 34.368C81.9896 34.368 80.0856 32.432 80.0856 30.016C80.0856 27.616 81.9896 25.664 84.5656 25.664C87.1416 25.664 89.0456 27.616 89.0456 30.016ZM83.2376 30.016C83.2376 31.36 83.6376 32.56 84.5656 32.56C85.5256 32.56 85.8936 31.424 85.8936 30.016C85.8936 28.64 85.4936 27.472 84.5656 27.472C83.6216 27.472 83.2376 28.64 83.2376 30.016ZM96.8673 26.528C96.8993 28.112 95.2032 28.24 94.3393 28.112H94.3232V30.752C94.3232 33.296 95.4113 32.752 95.2673 33.184C95.0912 33.696 94.2112 34.32 93.3152 34.32C92.0352 34.32 91.0912 33.392 91.0912 31.888V27.984L89.0112 27.968C89.0112 27.968 88.9632 27.968 88.9632 27.904L88.9312 26.112V26C88.9312 25.952 88.9472 25.952 88.9632 25.936C92.1152 25.344 96.0992 25.824 96.6593 25.904C96.7713 25.92 96.8032 25.984 96.8193 26.064C96.8193 26.064 96.8673 26.256 96.8673 26.528ZM105.334 30.016C105.334 32.432 103.478 34.368 100.854 34.368C98.2784 34.368 96.3744 32.432 96.3744 30.016C96.3744 27.616 98.2784 25.664 100.854 25.664C103.43 25.664 105.334 27.616 105.334 30.016ZM99.5264 30.016C99.5264 31.36 99.9264 32.56 100.854 32.56C101.814 32.56 102.182 31.424 102.182 30.016C102.182 28.64 101.782 27.472 100.854 27.472C99.9104 27.472 99.5264 28.64 99.5264 30.016ZM112.364 29.216C113.404 29.536 114.028 30.256 114.028 31.264C114.028 33.328 112.044 34.336 109.916 34.336C106.956 34.336 105.964 32.352 105.964 30.864C105.964 30.864 105.964 30.848 105.964 30.832C105.964 30.816 105.964 30.8 105.964 30.768C105.964 29.664 105.964 26.032 105.964 26.032C105.964 25.968 106.012 25.952 106.028 25.952C106.028 25.952 107.548 25.584 109.676 25.584C111.356 25.584 113.404 26.048 113.404 27.712C113.404 28.512 112.86 29.04 112.364 29.216ZM110.508 28.112C110.508 27.424 109.916 27.312 109.548 27.312C109.42 27.312 109.276 27.328 109.196 27.36C109.196 27.824 109.196 28.4 109.196 28.96H109.5C110.14 28.96 110.508 28.672 110.508 28.112ZM110.044 32.496C110.652 32.496 111.004 32.032 111.004 31.328C111.004 30.72 110.476 30.4 109.772 30.4C109.612 30.4 109.356 30.4 109.196 30.416C109.196 30.768 109.196 31.104 109.196 31.392C109.228 31.92 109.404 32.496 110.044 32.496ZM135.155 26.016C135.155 26.384 135.283 33.92 135.283 33.92C135.283 34 135.219 34 135.219 34H132.115C132.115 34 132.051 34 132.051 33.92C132.051 33.92 132.067 32.496 132.067 30.864L132.227 29.136L130.195 33.856C130.163 33.952 130.131 33.984 129.987 33.984H129.587C129.491 33.984 129.443 33.952 129.395 33.856L127.795 29.792C127.475 33.888 124.883 34.272 123.571 34.352C121.907 34.464 120.195 33.744 119.795 32.544C119.123 33.904 118.051 34.352 117.203 34.352C116.019 34.352 115.011 33.312 115.011 31.712V29.216C115.011 26.672 113.795 27.216 113.939 26.784C114.115 26.272 114.979 25.648 115.875 25.648C117.171 25.648 118.243 26.576 118.243 28.08V31.184C118.243 32.752 119.683 32.24 119.747 30.448V26.048C119.747 25.968 119.811 25.952 119.811 25.952H123.011C123.011 25.952 123.075 25.968 123.075 26.032C123.011 27.44 122.995 30.64 123.011 31.712C123.027 32.432 123.267 32.736 123.507 32.736C125.107 32.736 124.947 26.032 124.947 26.032C124.947 25.952 125.011 25.952 125.011 25.952H128.307C128.355 25.952 128.387 26.016 128.387 26.016L129.827 29.008H129.875L131.443 26C131.443 26 131.459 25.952 131.523 25.952H135.107C135.107 25.952 135.155 25.952 135.155 26.016ZM148.745 25.952C148.745 25.952 148.793 25.936 148.793 26.016C148.793 27.296 148.793 33.904 148.793 33.904C148.793 33.984 148.729 33.984 148.729 33.984H145.641C145.641 33.984 145.577 33.984 145.577 33.904C145.577 33.904 145.577 29.712 145.577 27.424C145.081 27.424 144.409 27.424 143.785 27.424C143.785 29.792 143.785 33.904 143.785 33.904C143.785 33.984 143.705 33.984 143.705 33.984H140.617C140.617 33.984 140.553 33.984 140.553 33.904C140.553 33.904 140.553 26.384 140.553 26.016C140.553 25.952 140.617 25.952 140.617 25.952C142.921 25.488 146.409 25.44 148.745 25.952ZM158.396 30.784C158.396 33.328 159.484 32.784 159.34 33.216C159.164 33.728 158.3 34.352 157.404 34.352C156.3 34.352 155.452 33.664 155.228 32.512C154.556 33.872 153.484 34.352 152.636 34.352C151.452 34.352 150.444 33.312 150.444 31.712C150.444 31.04 150.444 30.416 150.444 29.216C150.444 26.672 149.228 27.216 149.372 26.784C149.548 26.272 150.412 25.648 151.308 25.648C152.604 25.648 153.676 26.576 153.676 28.08C153.676 28.624 153.676 30.08 153.676 31.184C153.676 32.752 155.116 32.24 155.18 30.448C155.18 28.624 155.18 26.048 155.18 26.048C155.18 25.968 155.244 25.952 155.244 25.952H158.46C158.46 25.952 158.524 25.968 158.524 26.032C158.524 26.032 158.396 29.68 158.396 30.784ZM169.76 32.448V33.888C169.76 35.68 168.912 36.448 167.296 36.448C167.088 36.448 166.544 36.384 166.544 36.208C166.544 36.048 166.544 34.832 166.544 34.176C164.64 34.48 162.608 34.448 160.4 34C160.4 34 160.32 34 160.336 33.92C160.336 33.92 160.32 30.288 160.32 29.184C160.32 26.64 159.232 27.184 159.376 26.752C159.552 26.24 160.416 25.616 161.312 25.616C162.608 25.616 163.552 26.544 163.552 28.048C163.552 28.112 163.552 30.656 163.552 32.384H165.232C165.232 30 165.232 26.048 165.232 26.048C165.232 25.968 165.296 25.968 165.296 25.968H168.384C168.384 25.968 168.448 25.984 168.448 26.048C168.448 26.048 168.448 30.08 168.448 32.384H169.712C169.712 32.384 169.76 32.384 169.76 32.448ZM179.998 32.448V33.888C179.998 35.68 179.15 36.448 177.534 36.448C177.326 36.448 176.782 36.384 176.782 36.208C176.782 36.048 176.782 34.832 176.782 34.176C174.878 34.48 172.846 34.448 170.638 34C170.638 34 170.558 34 170.574 33.92C170.574 33.92 170.558 30.288 170.558 29.184C170.558 26.64 169.47 27.184 169.614 26.752C169.79 26.24 170.654 25.616 171.55 25.616C172.846 25.616 173.79 26.544 173.79 28.048C173.79 28.112 173.79 30.656 173.79 32.384H175.47C175.47 30 175.47 26.048 175.47 26.048C175.47 25.968 175.534 25.968 175.534 25.968H178.622C178.622 25.968 178.686 25.984 178.686 26.048C178.686 26.048 178.686 30.08 178.686 32.384H179.95C179.95 32.384 179.998 32.384 179.998 32.448ZM188.847 32.832C188.943 35.6 187.391 37.584 184.431 37.584C182.095 37.584 181.023 36.016 180.831 35.408C180.575 34.624 180.735 34.48 180.911 34.512C181.295 34.576 181.759 35.76 183.551 35.76C184.831 35.76 185.567 34.736 185.615 33.776C185.615 33.28 185.615 32.736 185.615 32.176C184.959 33.552 183.871 34.032 183.023 34.032C181.839 34.032 180.831 32.992 180.831 31.392C180.831 30.72 180.831 30.416 180.831 29.216C180.831 26.672 179.615 27.216 179.759 26.784C179.935 26.272 180.799 25.648 181.695 25.648C182.991 25.648 184.047 26.576 184.047 28.08C184.047 28.624 184.047 29.76 184.047 30.864C184.047 32.464 185.551 31.904 185.583 30.032C185.583 27.728 185.583 26.048 185.583 26.048C185.583 25.968 185.647 25.968 185.647 25.968H188.735C188.735 25.968 188.799 25.968 188.799 26.048C188.799 26.048 188.847 30.704 188.847 32.832ZM193.402 32.72C193.402 33.6 192.698 34.304 191.834 34.304C190.97 34.304 190.266 33.6 190.266 32.72C190.266 31.856 190.97 31.152 191.834 31.152C192.698 31.152 193.402 31.856 193.402 32.72ZM193.594 24.432C193.594 26.464 193.066 30.496 191.77 30.496C190.634 30.496 190.41 26.896 190.378 25.552C190.314 23.024 189.29 23.552 189.434 23.12C189.61 22.624 190.474 21.984 191.37 21.984C192.666 21.984 193.594 22.912 193.594 24.432Z" fill="#9D330C"/>
</svg>
